<mxfile host="Electron" modified="2024-09-18T06:07:32.855Z" agent="Mozilla/5.0 (X11; Linux x86_64) AppleWebKit/537.36 (KHTML, like Gecko) draw.io/24.5.3 Chrome/124.0.6367.207 Electron/30.0.6 Safari/537.36" etag="6gEB8mgTZomUjJizUAcD" version="24.5.3" type="device">
  <diagram name="第 1 页" id="khvy1ojD1X1joJmQcRXa">
    <mxGraphModel dx="1231" dy="760" grid="0" gridSize="10" guides="1" tooltips="1" connect="1" arrows="1" fold="1" page="1" pageScale="1" pageWidth="4000" pageHeight="3000" math="0" shadow="0">
      <root>
        <mxCell id="0" />
        <mxCell id="1" parent="0" />
        <mxCell id="1zi9ZVxPvkUWhqsQ7bib-1" value="" style="rounded=1;whiteSpace=wrap;html=1;strokeWidth=2;" vertex="1" parent="1">
          <mxGeometry x="230" y="60" width="810" height="410" as="geometry" />
        </mxCell>
        <mxCell id="1zi9ZVxPvkUWhqsQ7bib-2" value="&lt;font style=&quot;font-size: 19px;&quot;&gt;o3 lsq requeat&lt;/font&gt;" style="text;html=1;align=center;verticalAlign=middle;whiteSpace=wrap;rounded=0;" vertex="1" parent="1">
          <mxGeometry x="260" y="90" width="130" height="30" as="geometry" />
        </mxCell>
        <mxCell id="1zi9ZVxPvkUWhqsQ7bib-3" value="" style="rounded=1;whiteSpace=wrap;html=1;strokeWidth=2;fontSize=14;" vertex="1" parent="1">
          <mxGeometry x="310" y="370" width="170" height="70" as="geometry" />
        </mxCell>
        <mxCell id="1zi9ZVxPvkUWhqsQ7bib-4" value="mem::request" style="text;html=1;align=center;verticalAlign=middle;whiteSpace=wrap;rounded=0;strokeWidth=2;fontSize=14;" vertex="1" parent="1">
          <mxGeometry x="320" y="380" width="90" height="30" as="geometry" />
        </mxCell>
        <mxCell id="1zi9ZVxPvkUWhqsQ7bib-5" value="对于某个内存请求的抽象" style="text;html=1;align=center;verticalAlign=middle;whiteSpace=wrap;rounded=0;strokeWidth=2;fontSize=14;" vertex="1" parent="1">
          <mxGeometry x="310" y="410" width="170" height="30" as="geometry" />
        </mxCell>
        <mxCell id="1zi9ZVxPvkUWhqsQ7bib-6" value="" style="endArrow=classic;html=1;rounded=0;exitX=1;exitY=0.5;exitDx=0;exitDy=0;strokeWidth=2;fontSize=14;" edge="1" parent="1" source="1zi9ZVxPvkUWhqsQ7bib-3">
          <mxGeometry width="50" height="50" relative="1" as="geometry">
            <mxPoint x="590" y="440" as="sourcePoint" />
            <mxPoint x="600" y="405" as="targetPoint" />
          </mxGeometry>
        </mxCell>
        <mxCell id="1zi9ZVxPvkUWhqsQ7bib-7" value="" style="rounded=1;whiteSpace=wrap;html=1;strokeWidth=2;fontSize=14;" vertex="1" parent="1">
          <mxGeometry x="600" y="370" width="170" height="70" as="geometry" />
        </mxCell>
        <mxCell id="1zi9ZVxPvkUWhqsQ7bib-8" value="mem::packet" style="text;html=1;align=center;verticalAlign=middle;whiteSpace=wrap;rounded=0;strokeWidth=2;fontSize=14;" vertex="1" parent="1">
          <mxGeometry x="610" y="380" width="90" height="30" as="geometry" />
        </mxCell>
        <mxCell id="1zi9ZVxPvkUWhqsQ7bib-10" value="实际传输数据的载体" style="text;html=1;align=center;verticalAlign=middle;whiteSpace=wrap;rounded=0;strokeWidth=2;fontSize=14;" vertex="1" parent="1">
          <mxGeometry x="620" y="410" width="140" height="30" as="geometry" />
        </mxCell>
        <mxCell id="1zi9ZVxPvkUWhqsQ7bib-11" value="" style="whiteSpace=wrap;html=1;shape=mxgraph.basic.rectCallout;dx=30;dy=15;boundedLbl=1;strokeWidth=2;fontSize=14;" vertex="1" parent="1">
          <mxGeometry x="720" y="130" width="270" height="270" as="geometry" />
        </mxCell>
        <mxCell id="1zi9ZVxPvkUWhqsQ7bib-12" value="sender state" style="text;html=1;align=center;verticalAlign=middle;whiteSpace=wrap;rounded=0;strokeWidth=2;fontSize=14;" vertex="1" parent="1">
          <mxGeometry x="730" y="140" width="90" height="30" as="geometry" />
        </mxCell>
        <mxCell id="1zi9ZVxPvkUWhqsQ7bib-22" value="" style="group;strokeWidth=2;fontSize=14;" vertex="1" connectable="0" parent="1">
          <mxGeometry x="740" y="180" width="100" height="180" as="geometry" />
        </mxCell>
        <mxCell id="1zi9ZVxPvkUWhqsQ7bib-13" value="" style="rounded=0;whiteSpace=wrap;html=1;strokeWidth=2;fontSize=14;" vertex="1" parent="1zi9ZVxPvkUWhqsQ7bib-22">
          <mxGeometry width="100" height="180" as="geometry" />
        </mxCell>
        <mxCell id="1zi9ZVxPvkUWhqsQ7bib-15" value="" style="endArrow=none;html=1;rounded=0;exitX=0;exitY=0.25;exitDx=0;exitDy=0;entryX=1;entryY=0.25;entryDx=0;entryDy=0;strokeWidth=2;fontSize=14;" edge="1" parent="1zi9ZVxPvkUWhqsQ7bib-22" source="1zi9ZVxPvkUWhqsQ7bib-13" target="1zi9ZVxPvkUWhqsQ7bib-13">
          <mxGeometry width="50" height="50" relative="1" as="geometry">
            <mxPoint x="-160" y="260" as="sourcePoint" />
            <mxPoint x="-110" y="210" as="targetPoint" />
          </mxGeometry>
        </mxCell>
        <mxCell id="1zi9ZVxPvkUWhqsQ7bib-16" value="" style="endArrow=none;html=1;rounded=0;exitX=0;exitY=0.25;exitDx=0;exitDy=0;entryX=1;entryY=0.25;entryDx=0;entryDy=0;strokeWidth=2;fontSize=14;" edge="1" parent="1zi9ZVxPvkUWhqsQ7bib-22">
          <mxGeometry width="50" height="50" relative="1" as="geometry">
            <mxPoint y="94.5" as="sourcePoint" />
            <mxPoint x="100" y="94.5" as="targetPoint" />
          </mxGeometry>
        </mxCell>
        <mxCell id="1zi9ZVxPvkUWhqsQ7bib-17" value="" style="endArrow=none;html=1;rounded=0;exitX=0;exitY=0.25;exitDx=0;exitDy=0;entryX=1;entryY=0.25;entryDx=0;entryDy=0;strokeWidth=2;fontSize=14;" edge="1" parent="1zi9ZVxPvkUWhqsQ7bib-22">
          <mxGeometry width="50" height="50" relative="1" as="geometry">
            <mxPoint y="139" as="sourcePoint" />
            <mxPoint x="100" y="139" as="targetPoint" />
          </mxGeometry>
        </mxCell>
        <mxCell id="1zi9ZVxPvkUWhqsQ7bib-18" value="lsq request" style="text;html=1;align=center;verticalAlign=middle;whiteSpace=wrap;rounded=0;strokeWidth=2;fontSize=14;" vertex="1" parent="1zi9ZVxPvkUWhqsQ7bib-22">
          <mxGeometry x="5" y="10" width="90" height="30" as="geometry" />
        </mxCell>
        <mxCell id="1zi9ZVxPvkUWhqsQ7bib-19" value="L1 cache" style="text;html=1;align=center;verticalAlign=middle;whiteSpace=wrap;rounded=0;strokeWidth=2;fontSize=14;" vertex="1" parent="1zi9ZVxPvkUWhqsQ7bib-22">
          <mxGeometry x="5" y="60" width="90" height="30" as="geometry" />
        </mxCell>
        <mxCell id="1zi9ZVxPvkUWhqsQ7bib-20" value="L2 cache" style="text;html=1;align=center;verticalAlign=middle;whiteSpace=wrap;rounded=0;strokeWidth=2;fontSize=14;" vertex="1" parent="1zi9ZVxPvkUWhqsQ7bib-22">
          <mxGeometry x="5" y="110" width="90" height="30" as="geometry" />
        </mxCell>
        <mxCell id="1zi9ZVxPvkUWhqsQ7bib-21" value="Mem" style="text;html=1;align=center;verticalAlign=middle;whiteSpace=wrap;rounded=0;strokeWidth=2;fontSize=14;" vertex="1" parent="1zi9ZVxPvkUWhqsQ7bib-22">
          <mxGeometry x="5" y="150" width="90" height="30" as="geometry" />
        </mxCell>
        <mxCell id="1zi9ZVxPvkUWhqsQ7bib-23" value="内部的sender state 形成一个所经过的内存层次的调用栈" style="text;html=1;align=center;verticalAlign=middle;whiteSpace=wrap;rounded=0;strokeWidth=2;fontSize=14;" vertex="1" parent="1">
          <mxGeometry x="860" y="220" width="100" height="70" as="geometry" />
        </mxCell>
        <mxCell id="1zi9ZVxPvkUWhqsQ7bib-28" value="" style="group" vertex="1" connectable="0" parent="1">
          <mxGeometry x="360" y="240" width="240" height="60" as="geometry" />
        </mxCell>
        <mxCell id="1zi9ZVxPvkUWhqsQ7bib-24" value="" style="rounded=0;whiteSpace=wrap;html=1;strokeWidth=2;" vertex="1" parent="1zi9ZVxPvkUWhqsQ7bib-28">
          <mxGeometry width="240" height="60" as="geometry" />
        </mxCell>
        <mxCell id="1zi9ZVxPvkUWhqsQ7bib-25" value="" style="endArrow=none;html=1;rounded=0;entryX=0.25;entryY=0;entryDx=0;entryDy=0;exitX=0.25;exitY=1;exitDx=0;exitDy=0;strokeWidth=2;" edge="1" parent="1zi9ZVxPvkUWhqsQ7bib-28" source="1zi9ZVxPvkUWhqsQ7bib-24" target="1zi9ZVxPvkUWhqsQ7bib-24">
          <mxGeometry width="50" height="50" relative="1" as="geometry">
            <mxPoint x="-14.117647058823529" y="220" as="sourcePoint" />
            <mxPoint x="56.470588235294116" y="153.33333333333331" as="targetPoint" />
          </mxGeometry>
        </mxCell>
        <mxCell id="1zi9ZVxPvkUWhqsQ7bib-26" value="" style="endArrow=none;html=1;rounded=0;entryX=0.25;entryY=0;entryDx=0;entryDy=0;exitX=0.25;exitY=1;exitDx=0;exitDy=0;strokeWidth=2;" edge="1" parent="1zi9ZVxPvkUWhqsQ7bib-28">
          <mxGeometry width="50" height="50" relative="1" as="geometry">
            <mxPoint x="119.29411764705883" y="60" as="sourcePoint" />
            <mxPoint x="119.29411764705883" as="targetPoint" />
          </mxGeometry>
        </mxCell>
        <mxCell id="1zi9ZVxPvkUWhqsQ7bib-27" value="" style="endArrow=none;html=1;rounded=0;entryX=0.25;entryY=0;entryDx=0;entryDy=0;exitX=0.25;exitY=1;exitDx=0;exitDy=0;strokeWidth=2;" edge="1" parent="1zi9ZVxPvkUWhqsQ7bib-28">
          <mxGeometry width="50" height="50" relative="1" as="geometry">
            <mxPoint x="183.52941176470588" y="60" as="sourcePoint" />
            <mxPoint x="183.52941176470588" as="targetPoint" />
          </mxGeometry>
        </mxCell>
        <mxCell id="1zi9ZVxPvkUWhqsQ7bib-29" value="" style="endArrow=classic;html=1;rounded=0;exitX=0.121;exitY=1;exitDx=0;exitDy=0;exitPerimeter=0;entryX=0.25;entryY=0;entryDx=0;entryDy=0;strokeWidth=2;" edge="1" parent="1" source="1zi9ZVxPvkUWhqsQ7bib-24" target="1zi9ZVxPvkUWhqsQ7bib-3">
          <mxGeometry width="50" height="50" relative="1" as="geometry">
            <mxPoint x="1260" y="410" as="sourcePoint" />
            <mxPoint x="1310" y="360" as="targetPoint" />
          </mxGeometry>
        </mxCell>
        <mxCell id="1zi9ZVxPvkUWhqsQ7bib-30" value="lsq request 是 o3 中管理 mem::request 的载体" style="text;html=1;align=center;verticalAlign=middle;whiteSpace=wrap;rounded=0;fontSize=15;" vertex="1" parent="1">
          <mxGeometry x="290" y="140" width="200" height="80" as="geometry" />
        </mxCell>
        <mxCell id="1zi9ZVxPvkUWhqsQ7bib-31" value="可以利用 mem::request 中的信息 build 出packet" style="text;html=1;align=center;verticalAlign=middle;whiteSpace=wrap;rounded=0;fontSize=13;" vertex="1" parent="1">
          <mxGeometry x="460" y="320" width="170" height="60" as="geometry" />
        </mxCell>
      </root>
    </mxGraphModel>
  </diagram>
</mxfile>
